<?xml version="1.0" encoding="utf-8"?>
<!-- Generator: Adobe Illustrator 27.6.1, SVG Export Plug-In . SVG Version: 6.00 Build 0)  -->
<svg version="1.1" id="Layer_1" xmlns="http://www.w3.org/2000/svg" xmlns:xlink="http://www.w3.org/1999/xlink" x="0px" y="0px"
	 viewBox="0 0 16 16" style="enable-background:new 0 0 16 16;" xml:space="preserve">
<style type="text/css">
	.st0{fill:#AC73F1;}
</style>
<path class="st0" d="M7,1L6.4,3.3C6.2,3.3,6,3.4,5.7,3.5l-2-1.2L2.3,3.8l1.2,2C3.4,6,3.3,6.2,3.3,6.4L1,7v2l2.3,0.6
	c0.1,0.2,0.2,0.5,0.3,0.7l-1.2,2l1.4,1.4l2-1.2c0.2,0.1,0.4,0.2,0.7,0.3L7,15h2l0.6-2.3c0.2-0.1,0.5-0.2,0.7-0.3l2,1.2l1.4-1.4
	l-1.2-2c0.1-0.2,0.2-0.4,0.3-0.7L15,9V7l-2.3-0.6c-0.1-0.2-0.2-0.5-0.3-0.7l1.2-2l-1.4-1.4l-2,1.2C10,3.4,9.8,3.3,9.6,3.3L9,1H7z
	 M8,6c1.1,0,2,0.9,2,2s-0.9,2-2,2S6,9.1,6,8S6.9,6,8,6z"/>
</svg>
