<?xml version="1.0" encoding="utf-8"?>
<!-- Generator: Adobe Illustrator 27.6.1, SVG Export Plug-In . SVG Version: 6.00 Build 0)  -->
<svg version="1.1" id="Layer_1" xmlns="http://www.w3.org/2000/svg" xmlns:xlink="http://www.w3.org/1999/xlink" x="0px" y="0px"
	 viewBox="0 0 16 16" style="enable-background:new 0 0 16 16;" xml:space="preserve">
<style type="text/css">
	.st0{fill:#AC73F1;}
	.st1{fill:#E0E0E0;}
</style>
<path class="st0" d="M12.7,6.4c-0.1-0.2-0.2-0.5-0.3-0.7l1.2-2l-1.4-1.4l-2,1.2C10,3.4,9.8,3.3,9.6,3.2L9,1H7L6.4,3.3
	C6.2,3.3,6,3.4,5.8,3.5l-2-1.2L2.3,3.8l1.2,2L3.2,6.4L1,7v2h5.3C5.7,8,6,6.8,7,6.3C8,5.7,9.2,6,9.7,7c0.4,0.6,0.4,1.4,0,2H15V7
	L12.7,6.4z"/>
<path class="st1" d="M16,12h-2c1.1,0,2,0.9,2,2s-0.9,2-2,2h-2v-2h2c-1.1,0-2-0.9-2-2s0.9-2,2-2h2V12z"/>
<path class="st1" d="M8.5,13c0,0.5,0.5,1,1,1h1v2h-1c-1.7,0-3-1.3-3-3s1.3-3,3-3h1v2h-1C9,12,8.5,12.5,8.5,13z"/>
<path class="st1" d="M2,13h4c0-1.7-1.3-3-3-3s-3,1.3-3,3s1.3,3,3,3h3v-2H3C2.5,14,2,13.5,2,13z M3.4,11.4C3.7,11.5,3.9,11.7,4,12H2
	C2.2,11.5,2.9,11.2,3.4,11.4z"/>
</svg>
