<?xml version="1.0" encoding="utf-8"?>
<!-- Generator: Adobe Illustrator 27.6.1, SVG Export Plug-In . SVG Version: 6.00 Build 0)  -->
<svg version="1.1" id="Layer_1" xmlns="http://www.w3.org/2000/svg" xmlns:xlink="http://www.w3.org/1999/xlink" x="0px" y="0px"
	 viewBox="0 0 16 16" style="enable-background:new 0 0 16 16;" xml:space="preserve">
<style type="text/css">
	.st0{fill:#AC73F1;}
</style>
<path class="st0" d="M2,1C1.4,1,1,1.4,1,2v12c0,0.6,0.4,1,1,1h12c0.6,0,1-0.4,1-1V2c0-0.6-0.4-1-1-1H2z M3,3h10v10H3V3z M4,4v2h2V4
	H4z M7,4v2h2V4H7z M10,4v2h2V4H10z M4,7v2h2V7H4z M7,7v2h2V7H7z M10,7v2h2V7H10z M4,10v2h2v-2H4z M7,10v2h2v-2H7z"/>
<image style="overflow:visible;" width="16" height="12" xlink:href="BFA627C0.jpg"  transform="matrix(1 0 0 1 15.8379 5.7102)">
</image>
</svg>
