<?xml version="1.0" encoding="utf-8"?>
<!-- Generator: Adobe Illustrator 27.6.1, SVG Export Plug-In . SVG Version: 6.00 Build 0)  -->
<svg version="1.1" id="Layer_1" xmlns="http://www.w3.org/2000/svg" xmlns:xlink="http://www.w3.org/1999/xlink" x="0px" y="0px"
	 viewBox="0 0 16 16" style="enable-background:new 0 0 16 16;" xml:space="preserve">
<style type="text/css">
	.st0{fill:#CDABF6;}
	.st1{fill:#AC73F1;}
</style>
<path class="st0" d="M6,1C4.9,1,4,1.9,4,3v7H1v3c0,1.1,0.9,2,2,2h7c1.1,0,2-0.9,2-2V5h3V3c0-1.1-0.9-2-2-2H6z"/>
<path class="st1" d="M6,1C4.9,1,4,1.9,4,3v7H1v3c0,1.1,0.9,2,2,2s2-0.9,2-2V3c0-0.6,0.4-1,1-1s1,0.4,1,1v3h5V5H8V3C8,1.9,7.1,1,6,1z
	 M2,11h2v2c0,0.6-0.4,1-1,1s-1-0.4-1-1V11z"/>
</svg>
